# xmcd CD database file
#
# Track frame offsets:
#	150
#	20265
#	39140
#	60063
#	86052
#	106607
#	124018
#	139294
#	159793
#	173227
#	187476
#	193341
#
# Disc length: 2928 seconds
#
# Revision: 0
# Processed by: cddbd v1.5.1PL0 Copyright (c) Steve Scherf et al.
# Submitted via: CDex 1.51
#
DISCID=950b6e0c
DTITLE=Artisti Vari - Eclectica
DYEAR=1998
DGENRE=New Age
TTITLE0=Sida (Aids) - Meira Asher
TTITLE1=Sandanya - Foreign Affair
TTITLE2=My Love and I - B. Gogan and H. Zazou
TTITLE3=Pandas In Tandem - H. Budd and H. Zazou
TTITLE4=Continuum - Bel Canto
TTITLE5=L'Oeil De La Nuit - R. Matta
TTITLE6=All Those Years - Brion Gysin
TTITLE7=The Train - Tuxedomoon
TTITLE8=Le Parfum Du Raki - B. Lew
TTITLE9=Hora Din Caval - Taraf De Haïdouks
TTITLE10=Seyd Ozero - Sainkho
TTITLE11=Burkan Cocek - Kocani Orkestar
EXTD=YEAR: 1998
EXTT0=
EXTT1=
EXTT2=
EXTT3=
EXTT4=
EXTT5=
EXTT6=
EXTT7=
EXTT8=
EXTT9=
EXTT10=
EXTT11=
PLAYORDER=
